<svg xmlns="http://www.w3.org/2000/svg" width="2560" height="2560" viewBox="0 0 2560 2560" version="1.1"><path d="M 787.071 1105.165 C 781.564 1106.747, 775.262 1111.697, 772.282 1116.782 C 769.895 1120.855, 769.525 1122.538, 769.580 1129.095 C 769.633 1135.446, 770.038 1137.249, 772.050 1140.095 C 778.502 1149.223, 783.505 1152, 793.500 1152 C 804.190 1152, 810.506 1148.285, 814.953 1139.381 C 816.910 1135.460, 817.179 1133.675, 816.796 1127.145 C 816.299 1118.676, 815.281 1116.336, 809.690 1110.809 C 803.907 1105.091, 795.037 1102.877, 787.071 1105.165 M 653 1185.722 C 697.918 1186.419, 733.768 1186.432, 733.346 1185.750 C 733.091 1185.338, 710.971 1185.101, 684.191 1185.225 C 657.411 1185.349, 643.375 1185.573, 653 1185.722 M 784.250 1185.747 C 790.712 1185.921, 801.288 1185.921, 807.750 1185.747 C 814.212 1185.573, 808.925 1185.430, 796 1185.430 C 783.075 1185.430, 777.788 1185.573, 784.250 1185.747 M 1069.250 1185.747 C 1075.713 1185.921, 1086.287 1185.921, 1092.750 1185.747 C 1099.213 1185.573, 1093.925 1185.430, 1081 1185.430 C 1068.075 1185.430, 1062.787 1185.573, 1069.250 1185.747 M 1410.250 1185.749 C 1423.862 1185.906, 1446.138 1185.906, 1459.750 1185.749 C 1473.362 1185.592, 1462.225 1185.463, 1435 1185.463 C 1407.775 1185.463, 1396.638 1185.592, 1410.250 1185.749 M 2068.453 1223 C 2068.453 1243.625, 2068.586 1252.063, 2068.749 1241.750 C 2068.911 1231.438, 2068.911 1214.563, 2068.749 1204.250 C 2068.586 1193.938, 2068.453 1202.375, 2068.453 1223 M 2202.245 1276.405 L 2202 1367.310 2199.750 1365.442 L 2197.500 1363.574 2199.722 1365.982 C 2200.944 1367.306, 2202.184 1368.149, 2202.478 1367.856 C 2202.771 1367.563, 2202.893 1326.413, 2202.750 1276.411 L 2202.489 1185.500 2202.245 1276.405 M 549.229 1208.740 L 549 1230.981 500.250 1231.250 L 451.500 1231.519 500.281 1231.760 C 539.064 1231.951, 549.163 1231.739, 549.552 1230.725 C 549.821 1230.024, 549.910 1219.787, 549.750 1207.975 L 549.458 1186.500 549.229 1208.740 M 819.479 1278 C 819.479 1328.325, 819.601 1348.913, 819.750 1323.750 C 819.898 1298.588, 819.898 1257.413, 819.750 1232.250 C 819.601 1207.088, 819.479 1227.675, 819.479 1278 M 2248.218 1223.250 C 2248.098 1243.463, 2248.338 1260, 2248.750 1260.001 C 2249.433 1260.002, 2249.417 1232.476, 2248.714 1199.500 C 2248.561 1192.350, 2248.338 1203.037, 2248.218 1223.250 M 262.797 1231.745 C 267.361 1231.930, 274.561 1231.929, 278.797 1231.742 C 283.034 1231.555, 279.300 1231.404, 270.500 1231.405 C 261.700 1231.406, 258.234 1231.559, 262.797 1231.745 M 1527.250 1231.747 C 1534.263 1231.919, 1545.737 1231.919, 1552.750 1231.747 C 1559.763 1231.575, 1554.025 1231.435, 1540 1231.435 C 1525.975 1231.435, 1520.237 1231.575, 1527.250 1231.747 M 1623.250 1231.747 C 1630.263 1231.919, 1641.737 1231.919, 1648.750 1231.747 C 1655.763 1231.575, 1650.025 1231.435, 1636 1231.435 C 1621.975 1231.435, 1616.237 1231.575, 1623.250 1231.747 M 471.816 1254.749 C 482.440 1254.911, 499.540 1254.911, 509.816 1254.748 C 520.092 1254.586, 511.400 1254.453, 490.500 1254.454 C 469.600 1254.454, 461.192 1254.587, 471.816 1254.749 M 1732.500 1304 L 1709.500 1304.557 1732.191 1304.778 C 1746.484 1304.918, 1755.111 1304.630, 1755.500 1304 C 1755.840 1303.450, 1755.979 1303.100, 1755.809 1303.222 C 1755.639 1303.344, 1745.150 1303.694, 1732.500 1304 M 549.429 1346.500 C 549.429 1359.150, 549.573 1364.187, 549.747 1357.694 C 549.922 1351.200, 549.921 1340.850, 549.746 1334.694 C 549.571 1328.537, 549.428 1333.850, 549.429 1346.500 M 583.429 1346.500 C 583.429 1359.150, 583.573 1364.187, 583.747 1357.694 C 583.922 1351.200, 583.921 1340.850, 583.746 1334.694 C 583.571 1328.537, 583.428 1333.850, 583.429 1346.500 M 2068.407 1353 C 2068.407 1362.075, 2068.559 1365.787, 2068.744 1361.250 C 2068.929 1356.713, 2068.929 1349.287, 2068.744 1344.750 C 2068.559 1340.213, 2068.407 1343.925, 2068.407 1353 M 2248.407 1353 C 2248.407 1362.075, 2248.559 1365.787, 2248.744 1361.250 C 2248.929 1356.713, 2248.929 1349.287, 2248.744 1344.750 C 2248.559 1340.213, 2248.407 1343.925, 2248.407 1353 M 1712.317 1345.749 C 1723.766 1345.910, 1742.216 1345.909, 1753.317 1345.749 C 1764.418 1345.588, 1755.050 1345.456, 1732.500 1345.457 C 1709.950 1345.457, 1700.868 1345.589, 1712.317 1345.749 M 1588 1401 C 1588 1401.550, 1586.918 1402, 1585.595 1402 C 1582.201 1402, 1575.026 1406.031, 1573.137 1409 C 1572.262 1410.375, 1571.310 1411.725, 1571.022 1412 C 1567.590 1415.270, 1566.290 1429.870, 1568.972 1435.010 C 1569.686 1436.380, 1572.363 1439.594, 1574.921 1442.154 C 1580.367 1447.604, 1585.776 1449.467, 1594.012 1448.728 C 1606.824 1447.578, 1615 1438.334, 1615 1425 C 1615 1415.451, 1612.508 1411.129, 1602.292 1402.965 C 1601.628 1402.434, 1599.742 1402, 1598.101 1402 C 1596.460 1402, 1594.840 1401.550, 1594.500 1401 C 1594.160 1400.450, 1592.559 1400, 1590.941 1400 C 1589.323 1400, 1588 1400.450, 1588 1401" stroke="none" fill="#ea3001" fill-rule="evenodd"/><path d="M 1188.959 1241.231 L 1188.919 1297.500 1186.114 1294.222 C 1184.571 1292.420, 1165.576 1267.357, 1143.904 1238.527 L 1104.500 1186.108 1081.250 1186.054 L 1058 1186 1058 1277.500 L 1058 1369 1080.992 1369 L 1103.983 1369 1104.242 1314.029 L 1104.500 1259.057 1146.513 1313.779 L 1188.525 1368.500 1211.513 1368.500 L 1234.500 1368.500 1234.500 1277 L 1234.500 1185.500 1211.750 1185.231 L 1189 1184.962 1188.959 1241.231 M 1919 1185.691 C 1904.215 1187.259, 1889.214 1192.502, 1877.475 1200.205 C 1840.790 1224.277, 1825.920 1271.107, 1842.294 1311 C 1853.396 1338.048, 1874.707 1357.272, 1902 1364.858 C 1929.926 1372.620, 1958.977 1367.228, 1981.770 1350.053 C 1990.051 1343.812, 1999.355 1334.524, 1998.822 1333.030 C 1998.475 1332.057, 1966.251 1307.093, 1964.356 1306.329 C 1963.727 1306.075, 1961.070 1307.950, 1958.451 1310.496 C 1950.776 1317.955, 1938.670 1323.015, 1928.568 1322.985 C 1899.709 1322.901, 1878.131 1298.412, 1882.103 1270.250 C 1887.212 1234.023, 1933.105 1217.998, 1958.648 1243.521 L 1963.796 1248.665 1981.359 1235.083 C 1991.019 1227.612, 1998.940 1221.136, 1998.961 1220.690 C 1999.027 1219.311, 1988.800 1208.983, 1982.743 1204.312 C 1969.636 1194.204, 1954.569 1188.181, 1937.026 1186.036 C 1928.669 1185.014, 1925.886 1184.961, 1919 1185.691 M 208 1277.437 L 208 1369 250.093 1369 C 288.665 1369, 293.035 1368.827, 302.343 1366.937 C 332.082 1360.897, 357.396 1339.680, 369.060 1311.017 C 377.120 1291.212, 377.313 1264.936, 369.544 1245.112 C 364.484 1232.201, 358.540 1223.147, 348.230 1212.645 C 337.152 1201.362, 325.269 1194.236, 309.297 1189.299 L 300.500 1186.581 254.250 1186.227 L 208 1185.874 208 1277.437 M 406 1277.500 L 406 1369 477.500 1369 L 549 1369 549 1346 L 549 1323 500.500 1323 L 452 1323 452 1311.500 L 452 1300 490 1300 L 528 1300 528 1277.512 L 528 1255.024 490.250 1254.762 L 452.500 1254.500 452.218 1242.750 L 451.937 1231 500.468 1231 L 549 1231 549 1208.500 L 549 1186 477.500 1186 L 406 1186 406 1277.500 M 625.500 1187.885 C 600.944 1195.056, 584 1217.420, 584 1242.661 C 584 1258.948, 589.251 1271.495, 600.897 1283.034 C 615.515 1297.518, 623.437 1299.957, 656 1300 C 680.709 1300.032, 681.920 1300.273, 685.720 1305.912 C 689.493 1311.511, 688.255 1317.216, 682.433 1321.054 C 679.637 1322.896, 677.266 1322.987, 631.750 1322.993 L 584 1323 584 1346 L 584 1369 633.340 1369 C 679.285 1369, 683.214 1368.863, 690.443 1367.015 C 709.282 1362.196, 725.168 1346.946, 731.082 1328 C 735.340 1314.359, 733.196 1296.338, 725.729 1283 C 721.148 1274.816, 710.630 1265.044, 701.603 1260.583 C 691.014 1255.351, 682.567 1254.077, 658.200 1254.035 C 636.515 1253.998, 633.352 1253.395, 630.914 1248.839 C 629.472 1246.145, 629.519 1239.768, 631 1236.999 C 631.620 1235.841, 633.561 1234.019, 635.314 1232.950 C 638.351 1231.098, 640.733 1231.007, 686.269 1231.004 L 734.038 1231 733.769 1208.750 L 733.500 1186.500 682.500 1186.317 C 636.514 1186.151, 630.910 1186.305, 625.500 1187.885 M 773 1277.500 L 773 1369 796 1369 L 819 1369 819 1277.500 L 819 1186 796 1186 L 773 1186 773 1277.500 M 923.660 1187.048 C 888.130 1193.011, 859.745 1219.028, 849.739 1254.802 C 847.945 1261.214, 847.593 1265.089, 847.630 1278 C 847.670 1291.928, 847.950 1294.413, 850.397 1302.500 C 856.587 1322.955, 869.941 1341.607, 886.604 1353.072 C 893.349 1357.712, 906.647 1363.745, 915.500 1366.181 C 923.097 1368.271, 925.828 1368.401, 969.750 1368.762 L 1016 1369.142 1016 1313.071 L 1016 1257 970.500 1257 L 925 1257 925 1278.500 L 925 1300 947.500 1300 L 970 1300 970 1311.500 L 970 1323 951.549 1323 C 931.600 1323, 925.195 1322.109, 917.583 1318.274 C 911.504 1315.212, 902.646 1306.958, 899.288 1301.228 C 892.960 1290.430, 891.269 1275.813, 894.964 1263.855 C 901.690 1242.092, 922.315 1228.930, 944.719 1232.102 C 953.614 1233.362, 960.476 1236.634, 966.173 1242.331 C 968.741 1244.899, 971.045 1247, 971.294 1247 C 971.542 1247, 978.815 1239.301, 987.455 1229.891 L 1003.165 1212.781 1000.332 1209.803 C 995.206 1204.412, 980.567 1195.394, 971.779 1192.215 C 956.219 1186.584, 938.047 1184.633, 923.660 1187.048 M 1377 1187.579 C 1356.399 1193, 1339.927 1210.434, 1335.504 1231.500 C 1332.779 1244.479, 1334.392 1256.252, 1340.629 1268.926 C 1347.370 1282.624, 1362.167 1294.464, 1377.552 1298.472 C 1381.988 1299.627, 1388.996 1300, 1406.260 1300 C 1431.405 1300, 1433.624 1300.438, 1436.483 1305.967 C 1438.930 1310.699, 1438.424 1315.494, 1435.083 1319.234 L 1432.165 1322.500 1383.333 1323 L 1334.500 1323.500 1334.231 1346.250 L 1333.962 1369 1384.231 1368.942 C 1440.762 1368.878, 1441.541 1368.796, 1454.500 1361.569 C 1476.531 1349.283, 1488.163 1323.288, 1482.459 1299.088 C 1477.631 1278.607, 1462.936 1263.129, 1442 1256.475 C 1437.590 1255.073, 1431.553 1254.632, 1411.535 1254.249 L 1386.570 1253.770 1383.158 1250.358 C 1380.030 1247.230, 1379.789 1246.563, 1380.264 1242.351 C 1380.647 1238.956, 1381.598 1236.940, 1383.909 1234.628 L 1387.037 1231.500 1435.519 1231.222 L 1484 1230.945 1484 1208.472 L 1484 1186 1433.250 1186.066 C 1392.322 1186.119, 1381.436 1186.412, 1377 1187.579 M 1515 1208.500 L 1515 1231 1540 1231 L 1565 1231 1565 1300 L 1565 1369 1588 1369 L 1611 1369 1611 1300 L 1611 1231 1636 1231 L 1661 1231 1661 1208.500 L 1661 1186 1588 1186 L 1515 1186 1515 1208.500 M 1710.529 1191.339 C 1709.220 1194.298, 1690.963 1234.920, 1669.957 1281.610 C 1648.952 1328.299, 1631.542 1367.070, 1631.269 1367.767 C 1630.875 1368.774, 1635.939 1368.980, 1655.920 1368.767 L 1681.067 1368.500 1686.371 1357 L 1691.676 1345.500 1732.206 1345.239 C 1763.899 1345.035, 1772.943 1345.253, 1773.685 1346.239 C 1774.206 1346.933, 1776.814 1352.338, 1779.480 1358.250 L 1784.327 1369 1809.163 1369 C 1822.824 1369, 1833.987 1368.662, 1833.971 1368.250 C 1833.955 1367.838, 1815.613 1326.775, 1793.212 1277 L 1752.483 1186.500 1732.696 1186.229 L 1712.909 1185.957 1710.529 1191.339 M 2023 1277.500 L 2023 1369 2045.500 1369 L 2068 1369 2068 1353.172 L 2068 1337.344 2076.551 1325.922 C 2081.253 1319.640, 2085.437 1314.381, 2085.846 1314.235 C 2086.256 1314.089, 2098.436 1326.351, 2112.913 1341.485 L 2139.234 1369 2193.617 1369 L 2248 1369 2248 1353.165 L 2248 1337.329 2256.570 1325.665 C 2261.283 1319.249, 2265.451 1314, 2265.832 1314 C 2266.212 1314, 2278.373 1326.375, 2292.855 1341.500 L 2319.186 1369 2350.686 1369 L 2382.185 1369 2377.843 1364.177 C 2375.454 1361.524, 2355.592 1340.826, 2333.705 1318.181 L 2293.910 1277.007 2309.315 1256.754 C 2317.788 1245.614, 2333.101 1225.475, 2343.345 1212 C 2353.588 1198.525, 2361.975 1187.162, 2361.984 1186.750 C 2361.993 1186.338, 2349.287 1186.003, 2333.750 1186.006 L 2305.500 1186.012 2277.500 1222.971 C 2262.100 1243.299, 2249.162 1259.947, 2248.750 1259.966 C 2248.338 1259.985, 2248 1243.350, 2248 1223 L 2248 1186 2225.500 1186 L 2203 1186 2203 1277.083 C 2203 1327.179, 2202.635 1368.017, 2202.190 1367.833 C 2201.744 1367.650, 2181.708 1347.145, 2157.666 1322.267 L 2113.953 1277.034 2123.316 1264.767 C 2128.466 1258.020, 2143.605 1238.100, 2156.959 1220.500 C 2170.313 1202.900, 2181.690 1187.938, 2182.242 1187.250 C 2183.040 1186.256, 2177.340 1186.002, 2154.372 1186.010 L 2125.500 1186.020 2097.500 1223 C 2082.100 1243.339, 2069.162 1259.984, 2068.750 1259.990 C 2068.338 1259.995, 2068 1243.350, 2068 1223 L 2068 1186 2045.500 1186 L 2023 1186 2023 1277.500 M 254.667 1231.667 C 254.300 1232.033, 254 1252.733, 254 1277.667 L 254 1323 272.911 1323 C 288.662 1323, 292.839 1322.683, 297.909 1321.105 C 320.783 1313.986, 334.482 1289.627, 328.508 1266.693 C 323.756 1248.448, 308.611 1234.669, 290.417 1232.039 C 282.655 1230.917, 255.697 1230.636, 254.667 1231.667 M 1721.135 1279.250 C 1714.993 1292.588, 1709.974 1303.838, 1709.983 1304.250 C 1710.002 1305.096, 1754.366 1305.300, 1755.208 1304.458 C 1755.824 1303.842, 1733.821 1255.090, 1732.902 1255.036 C 1732.573 1255.016, 1727.278 1265.912, 1721.135 1279.250" stroke="none" fill="#faf7f6" fill-rule="evenodd"/><path d="M -0 1280 L -0 2560.001 1280.250 2559.750 L 2560.500 2559.500 2560.750 1279.750 L 2561.001 0 1280.500 0 L 0 0 -0 1280 M 0.498 1280.500 C 0.498 1984.500, 0.612 2272.350, 0.750 1920.167 C 0.888 1567.984, 0.888 991.984, 0.750 640.167 C 0.612 288.350, 0.498 576.500, 0.498 1280.500 M 787.071 1105.165 C 781.564 1106.747, 775.262 1111.697, 772.282 1116.782 C 769.895 1120.855, 769.525 1122.538, 769.580 1129.095 C 769.633 1135.446, 770.038 1137.249, 772.050 1140.095 C 778.502 1149.223, 783.505 1152, 793.500 1152 C 804.190 1152, 810.506 1148.285, 814.953 1139.381 C 816.910 1135.460, 817.179 1133.675, 816.796 1127.145 C 816.299 1118.676, 815.281 1116.336, 809.690 1110.809 C 803.907 1105.091, 795.037 1102.877, 787.071 1105.165 M 630 1186.485 C 621.540 1188.186, 613.956 1191.643, 606.423 1197.232 C 591.752 1208.117, 583.989 1223.859, 584.012 1242.676 C 584.025 1253.458, 585.500 1260.414, 589.513 1268.616 C 595.305 1280.455, 607.018 1291.197, 620.192 1296.753 C 626.344 1299.348, 627.156 1299.427, 653 1299.960 C 681.128 1300.539, 682.291 1300.742, 685.495 1305.632 C 688.392 1310.054, 687.832 1315.629, 684.118 1319.344 L 680.963 1322.500 632.232 1323 L 583.500 1323.500 583.231 1346.250 L 582.962 1369 633.771 1369 C 690.127 1369, 690.580 1368.957, 702.998 1362.432 C 737.197 1344.461, 744.106 1298.878, 716.773 1271.548 C 709.529 1264.305, 700.648 1258.835, 691.500 1255.982 C 689.007 1255.205, 677.766 1254.502, 661.666 1254.117 L 635.832 1253.500 632.916 1250.234 C 628.675 1245.484, 628.852 1240.223, 633.422 1235.235 L 636.845 1231.500 685.441 1231.214 L 734.037 1230.927 733.769 1208.214 L 733.500 1185.500 685 1185.339 C 648.512 1185.218, 634.890 1185.502, 630 1186.485 M 773 1277 L 773 1369 796.500 1369 L 820 1369 820 1278.582 C 820 1228.852, 819.727 1187.452, 819.393 1186.582 C 818.864 1185.203, 815.846 1185, 795.893 1185 L 773 1185 773 1277 M 1058 1277 L 1058 1369 1080.991 1369 L 1103.983 1369 1104.241 1314.283 L 1104.500 1259.565 1146.500 1314.282 L 1188.500 1368.998 1211.750 1368.999 L 1235 1369 1235 1277 L 1235 1185 1212.008 1185 L 1189.017 1185 1188.758 1241.126 L 1188.500 1297.252 1146.130 1241.126 L 1103.761 1185 1080.880 1185 L 1058 1185 1058 1277 M 1380.072 1186.553 C 1368.806 1188.996, 1359.648 1194.107, 1351.018 1202.766 C 1336.084 1217.749, 1330.774 1237.066, 1335.985 1257.443 C 1340.525 1275.193, 1354.038 1290.153, 1371.854 1297.152 C 1377.026 1299.184, 1379.754 1299.418, 1404.328 1299.935 L 1431.155 1300.500 1434.578 1304.235 C 1439.782 1309.916, 1438.998 1317.201, 1432.775 1320.996 C 1429.623 1322.918, 1427.710 1322.993, 1381.750 1322.996 L 1334 1323 1334 1346 L 1334 1369 1383.951 1369 C 1416.123 1369, 1435.788 1368.612, 1439.201 1367.909 C 1458.999 1363.833, 1477.290 1345.928, 1482.482 1325.540 C 1484.262 1318.550, 1484.450 1307.284, 1482.910 1299.799 C 1479.822 1284.790, 1468.316 1269.124, 1454.899 1261.665 C 1443.456 1255.303, 1435.960 1254, 1410.790 1254 C 1393.180 1254, 1388.327 1253.703, 1385.967 1252.483 C 1382.703 1250.795, 1380 1246.363, 1380 1242.698 C 1380 1239.004, 1384.142 1233.647, 1388.035 1232.306 C 1390.515 1231.452, 1404.651 1231.097, 1437.750 1231.056 L 1484 1231 1484 1208 L 1484 1185 1435.250 1185.079 C 1397.548 1185.141, 1385.043 1185.475, 1380.072 1186.553 M 1910.834 1186.498 C 1874.469 1193.404, 1846.389 1220.625, 1837.320 1257.763 C 1835.283 1266.105, 1835.052 1286.099, 1836.895 1294.500 C 1840.962 1313.032, 1848.751 1327.608, 1861.931 1341.347 C 1873.496 1353.402, 1887.663 1361.523, 1905.045 1366.060 C 1917.122 1369.212, 1936.076 1369.281, 1948.301 1366.218 C 1958.348 1363.701, 1969.250 1358.926, 1977.692 1353.343 C 1984.571 1348.795, 1999 1335.300, 1999 1333.414 C 1999 1332.688, 1991.037 1326.029, 1981.304 1318.616 L 1963.607 1305.138 1957.421 1310.925 C 1938.382 1328.735, 1906.949 1325.569, 1890.788 1304.212 C 1876.899 1285.858, 1879.601 1258.084, 1896.743 1242.995 C 1906.408 1234.488, 1921.882 1229.853, 1934.234 1231.764 C 1943.491 1233.197, 1952.437 1237.637, 1958.618 1243.865 L 1963.737 1249.022 1981.954 1234.871 L 2000.172 1220.720 1992.836 1213.322 C 1979.718 1200.092, 1965.790 1191.889, 1949.726 1187.932 C 1938.793 1185.239, 1920.934 1184.580, 1910.834 1186.498 M 208 1277.446 L 208 1369 250.890 1369 C 284.895 1369, 295.422 1368.688, 301.713 1367.495 C 316.108 1364.764, 329.501 1358.328, 342.428 1347.929 C 357.934 1335.455, 367.828 1319.630, 373.645 1298 C 376.176 1288.585, 376.149 1267.054, 373.593 1257 C 365.186 1223.936, 341.988 1199.059, 310.500 1189.339 L 301.500 1186.561 254.750 1186.226 L 208 1185.891 208 1277.446 M 406 1277.493 L 406 1369 478.019 1369 L 550.038 1369 549.769 1346.250 L 549.500 1323.500 500.717 1323.240 L 451.935 1322.981 452.217 1311.740 L 452.500 1300.500 490.250 1300.238 L 528 1299.976 528 1276.988 L 528 1254 490 1254 L 452 1254 452 1243.010 L 452 1232.019 500.750 1231.760 L 549.500 1231.500 549.500 1209 L 549.500 1186.500 477.750 1186.243 L 406 1185.987 406 1277.493 M 919.516 1187.600 C 902.737 1191.338, 888.837 1198.607, 876.694 1209.993 C 861.608 1224.140, 852.932 1239.328, 848.492 1259.359 C 846.129 1270.025, 846.846 1291.166, 849.940 1302 C 858.860 1333.239, 883.266 1357.443, 914.716 1366.242 C 922.108 1368.310, 924.855 1368.437, 969.250 1368.764 L 1016 1369.109 1016 1313.054 L 1016 1257 970.500 1257 L 925 1257 925 1278.500 L 925 1300 947 1300 L 969 1300 969 1311.500 L 969 1323 951.549 1323 C 931.407 1323, 926.070 1322.119, 916.715 1317.248 C 901.262 1309.203, 892.130 1292.427, 893.268 1274.180 C 893.722 1266.915, 894.358 1264.618, 897.895 1257.481 C 905.426 1242.282, 918.836 1233.017, 934.495 1232.196 C 948.740 1231.448, 957.607 1234.408, 966.230 1242.788 L 970.960 1247.386 973.585 1244.943 C 978.619 1240.259, 1002.502 1213.785, 1002.790 1212.571 C 1003.280 1210.502, 989.226 1200.153, 979.612 1195.504 C 965.320 1188.594, 957.883 1186.843, 941 1186.413 C 930.385 1186.143, 924.629 1186.461, 919.516 1187.600 M 1515 1209 L 1515 1232 1540 1232 L 1565 1232 1565 1300.500 L 1565 1369 1588 1369 L 1611 1369 1611 1300.500 L 1611 1232 1636 1232 L 1661 1232 1661 1209 L 1661 1186 1588 1186 L 1515 1186 1515 1209 M 1711.645 1188.750 C 1709.095 1193.735, 1631 1367.663, 1631 1368.356 C 1631 1368.729, 1642.340 1368.914, 1656.200 1368.767 L 1681.401 1368.500 1686.450 1357.253 L 1691.500 1346.006 1732.561 1346.003 L 1773.622 1346 1778.761 1357.250 L 1783.899 1368.500 1809.340 1368.767 L 1834.781 1369.033 1808.346 1310.267 C 1793.807 1277.945, 1775.306 1236.763, 1767.233 1218.750 L 1752.555 1186 1732.803 1186 L 1713.051 1186 1711.645 1188.750 M 2023 1277.500 L 2023 1369 2046 1369 L 2069 1369 2069 1352.681 L 2069 1336.362 2077.250 1325.222 C 2081.787 1319.095, 2085.744 1314.176, 2086.042 1314.291 C 2086.340 1314.406, 2098.414 1326.763, 2112.872 1341.750 L 2139.160 1369 2194.080 1369 L 2249 1369 2249 1352.681 L 2249 1336.362 2257.250 1325.222 C 2261.787 1319.095, 2265.730 1314.176, 2266.011 1314.291 C 2266.292 1314.406, 2278.217 1326.726, 2292.511 1341.670 L 2318.500 1368.839 2350.870 1368.920 L 2383.239 1369 2357.307 1342.250 C 2308.208 1291.603, 2295 1277.742, 2295 1276.863 C 2295 1276.379, 2309.258 1257.199, 2326.683 1234.241 C 2344.109 1211.283, 2359.463 1191.037, 2360.802 1189.250 L 2363.237 1186 2334.253 1186 L 2305.268 1186 2277.384 1222.681 L 2249.500 1259.362 2249 1222.931 L 2248.500 1186.500 2225.255 1186.232 L 2202.011 1185.963 2201.755 1276.636 L 2201.500 1367.310 2158.644 1322.905 C 2135.073 1298.482, 2115.584 1277.994, 2115.335 1277.376 C 2115.086 1276.758, 2129.893 1256.500, 2148.239 1232.359 C 2166.585 1208.217, 2181.937 1187.910, 2182.356 1187.232 C 2182.953 1186.267, 2176.864 1186, 2154.223 1186 L 2125.328 1186 2097.164 1223.120 L 2069 1260.240 2069 1223.120 L 2069 1186 2046 1186 L 2023 1186 2023 1277.500 M 254 1277.413 L 254 1323 271.790 1323 C 284.547 1323, 291.245 1322.566, 295.465 1321.467 C 312.996 1316.901, 326.093 1302.436, 329.081 1284.337 C 330.561 1275.375, 329.306 1267.494, 324.865 1257.858 C 320.877 1249.206, 312.049 1240.590, 302.287 1235.823 L 295.500 1232.508 274.750 1232.167 L 254 1231.825 254 1277.413 M 1721.312 1279.258 L 1710.209 1303.500 1732.252 1303.770 C 1744.375 1303.918, 1754.484 1303.849, 1754.716 1303.618 C 1755.162 1303.171, 1734.349 1257.024, 1733.130 1255.758 C 1732.737 1255.350, 1727.419 1265.925, 1721.312 1279.258 M 1588 1401 C 1588 1401.550, 1586.918 1402, 1585.595 1402 C 1582.201 1402, 1575.026 1406.031, 1573.137 1409 C 1572.262 1410.375, 1571.310 1411.725, 1571.022 1412 C 1567.590 1415.270, 1566.290 1429.870, 1568.972 1435.010 C 1569.686 1436.380, 1572.363 1439.594, 1574.921 1442.154 C 1580.367 1447.604, 1585.776 1449.467, 1594.012 1448.728 C 1606.824 1447.578, 1615 1438.334, 1615 1425 C 1615 1415.451, 1612.508 1411.129, 1602.292 1402.965 C 1601.628 1402.434, 1599.742 1402, 1598.101 1402 C 1596.460 1402, 1594.840 1401.550, 1594.500 1401 C 1594.160 1400.450, 1592.559 1400, 1590.941 1400 C 1589.323 1400, 1588 1400.450, 1588 1401" stroke="none" fill="#040404" fill-rule="evenodd"/></svg>
